<svg width="66" height="77" viewBox="0 0 66 77" fill="none" xmlns="http://www.w3.org/2000/svg">
<path d="M63.651 66.8782L57.561 25.6682V25.5582C57.5264 23.7012 56.7814 21.9282 55.4793 20.6038C54.1773 19.2794 52.4171 18.5044 50.561 18.4382H44.721V13.7282C44.721 10.5827 43.4715 7.56607 41.2473 5.34189C39.0231 3.11771 36.0065 1.86816 32.861 1.86816C29.7156 1.86816 26.6989 3.11771 24.4747 5.34189C22.2506 7.56607 21.001 10.5827 21.001 13.7282V18.3582H15.171C13.3165 18.4291 11.5592 19.2057 10.2581 20.529C8.95701 21.8524 8.21047 23.6227 8.17104 25.4782V25.5982L2.17104 66.8382C2.16102 67.0013 2.16102 67.165 2.17104 67.3282V67.4482C2.0801 69.1904 2.56119 70.9147 3.54103 72.3582C4.11115 73.1457 4.86412 73.7829 5.73511 74.2149C6.60611 74.6469 7.56904 74.8608 8.54103 74.8382H57.311C58.283 74.8608 59.2459 74.6469 60.1169 74.2149C60.9879 73.7829 61.7409 73.1457 62.311 72.3582C63.2862 70.9445 63.7806 69.2545 63.721 67.5382V67.3582C63.7118 67.1964 63.6884 67.0358 63.651 66.8782ZM32.891 4.44817C35.3514 4.45081 37.7103 5.42938 39.4501 7.16914C41.1898 8.90891 42.1684 11.2678 42.171 13.7282V18.3582H23.611V13.6882C23.6137 11.2278 24.5922 8.8689 26.332 7.12914C28.0718 5.38937 30.4306 4.41082 32.891 4.40817V4.44817ZM61.101 67.4482C61.1614 68.6175 60.8422 69.7751 60.191 70.7482C59.8643 71.2019 59.4318 71.5692 58.931 71.8182C58.4287 72.0683 57.8718 72.1886 57.311 72.1682H8.51103C7.95348 72.1886 7.39976 72.0683 6.90103 71.8182C6.39733 71.5696 5.96152 71.2024 5.63103 70.7482C4.98439 69.773 4.66561 68.617 4.72103 67.4482V67.2182L10.821 25.9782V25.6582C10.8183 24.4599 11.2714 23.3054 12.0885 22.4288C12.9056 21.5523 14.0255 21.0194 15.221 20.9382H21.051V29.5382C21.0519 29.7927 21.128 30.0412 21.2698 30.2526C21.4116 30.4639 21.6128 30.6286 21.848 30.7259C22.0831 30.8232 22.3418 30.8487 22.5915 30.7993C22.8412 30.7499 23.0706 30.6277 23.251 30.4482C23.3728 30.3302 23.4692 30.1887 23.5346 30.0322C23.5999 29.8758 23.6327 29.7077 23.631 29.5382V20.9782H42.191V29.5782C42.1919 29.8327 42.268 30.0812 42.4098 30.2926C42.5516 30.5039 42.7528 30.6686 42.988 30.7659C43.2231 30.8632 43.4818 30.8887 43.7315 30.8393C43.9812 30.7899 44.2106 30.6677 44.391 30.4882C44.5128 30.3702 44.6092 30.2287 44.6746 30.0722C44.7399 29.9158 44.7727 29.7477 44.771 29.5782V20.9782H50.611C51.8057 21.0595 52.9245 21.5928 53.7399 22.4696C54.5554 23.3463 55.0063 24.5008 55.001 25.6982V25.9782L61.071 67.0982V67.4482H61.101Z" fill="#1D1E1B" stroke="#1D1D1B" stroke-width="3" stroke-miterlimit="10"/>
</svg>
