<svg width="64" height="75" viewBox="0 0 64 75" fill="none" xmlns="http://www.w3.org/2000/svg">
<path d="M62.7599 66.2698L56.6699 25.0598V24.9498C56.6353 23.0928 55.8903 21.3198 54.5882 19.9954C53.2861 18.671 51.526 17.896 49.6699 17.8298H43.8299V13.1198C43.8299 9.9743 42.5804 6.95767 40.3562 4.73349C38.132 2.50931 35.1154 1.25977 31.9699 1.25977C28.8244 1.25977 25.8078 2.50931 23.5836 4.73349C21.3595 6.95767 20.1099 9.9743 20.1099 13.1198V17.7498H14.2799C12.4254 17.8207 10.6681 18.5973 9.36698 19.9206C8.0659 21.244 7.31935 23.0143 7.27992 24.8698V24.9898L1.27992 66.2298C1.26991 66.3929 1.26991 66.5566 1.27992 66.7198V66.8398C1.18899 68.582 1.67008 70.3063 2.64992 71.7498C3.22004 72.5373 3.97301 73.1745 4.844 73.6065C5.715 74.0386 6.67793 74.2524 7.64992 74.2298H56.4199C57.3919 74.2524 58.3548 74.0386 59.2258 73.6065C60.0968 73.1745 60.8498 72.5373 61.4199 71.7498C62.3951 70.3361 62.8895 68.6461 62.8299 66.9298V66.7498C62.8207 66.588 62.7973 66.4274 62.7599 66.2698ZM31.9999 3.83977C34.4603 3.84241 36.8192 4.82098 38.5589 6.56075C40.2987 8.30051 41.2773 10.6594 41.2799 13.1198V17.7498H22.7199V13.0798C22.7226 10.6194 23.7011 8.2605 25.4409 6.52074C27.1807 4.78097 29.5395 3.80242 31.9999 3.79977V3.83977ZM60.2099 66.8398C60.2703 68.0091 59.9511 69.1667 59.2999 70.1398C58.9731 70.5935 58.5406 70.9608 58.0399 71.2098C57.5376 71.4599 56.9807 71.5802 56.4199 71.5598H7.61992C7.06237 71.5802 6.50865 71.4599 6.00992 71.2098C5.50622 70.9612 5.07041 70.594 4.73992 70.1398C4.09328 69.1646 3.7745 68.0086 3.82992 66.8398V66.6098L9.92992 25.3698V25.0498C9.92716 23.8515 10.3803 22.697 11.1974 21.8204C12.0145 20.9439 13.1344 20.411 14.3299 20.3298H20.1599V28.9298C20.1608 29.1843 20.2369 29.4328 20.3787 29.6442C20.5205 29.8555 20.7217 30.0202 20.9568 30.1175C21.192 30.2148 21.4507 30.2403 21.7004 30.1909C21.9501 30.1415 22.1795 30.0193 22.3599 29.8398C22.4817 29.7218 22.5781 29.5803 22.6435 29.4238C22.7088 29.2674 22.7416 29.0993 22.7399 28.9298V20.3698H41.2999V28.9698C41.3008 29.2243 41.3769 29.4728 41.5187 29.6842C41.6605 29.8955 41.8617 30.0602 42.0968 30.1575C42.332 30.2548 42.5907 30.2803 42.8404 30.2309C43.0901 30.1815 43.3195 30.0593 43.4999 29.8798C43.6217 29.7618 43.7181 29.6203 43.7835 29.4638C43.8488 29.3074 43.8816 29.1393 43.8799 28.9698V20.3698H49.7199C50.9145 20.4511 52.0333 20.9844 52.8488 21.8612C53.6643 22.7379 54.1152 23.8924 54.1099 25.0898V25.3698L60.1799 66.4898V66.8398H60.2099Z" fill="#1D1E1B" stroke="#1D1D1B" stroke-miterlimit="10"/>
</svg>
