<svg width="76" height="70" viewBox="0 0 76 70" fill="none" xmlns="http://www.w3.org/2000/svg">
<path d="M73.6113 66.1581C71.077 60.0537 67.0129 54.705 61.8109 50.6274C56.6089 46.5499 50.4444 43.8811 43.9113 42.8782C48.7354 41.4734 52.8908 38.3753 55.6143 34.153C58.3379 29.9307 59.4466 24.8676 58.7371 19.8934C58.0276 14.9193 55.5475 10.368 51.752 7.07556C47.9566 3.7831 43.1007 1.97046 38.0763 1.97046C33.0518 1.97046 28.196 3.7831 24.4005 7.07556C20.6051 10.368 18.1249 14.9193 17.4154 19.8934C16.7059 24.8676 17.8147 29.9307 20.5382 34.153C23.2618 38.3753 27.4172 41.4734 32.2413 42.8782C25.7052 43.8828 19.5373 46.5519 14.3308 50.6288C9.1242 54.7058 5.05398 60.0536 2.51131 66.1581C2.43199 66.3546 2.4011 66.5672 2.42129 66.7781C2.44584 66.9881 2.51766 67.1899 2.63131 67.3682C2.75019 67.5454 2.91181 67.6899 3.10128 67.7881C3.28464 67.8911 3.49098 67.9462 3.70126 67.9482H72.3913C72.6052 67.9497 72.8157 67.8945 73.0013 67.7881C73.1898 67.6923 73.3487 67.5472 73.4613 67.3682C73.5926 67.1974 73.6724 66.9927 73.6913 66.7781C73.7199 66.568 73.6923 66.3541 73.6113 66.1581ZM19.7813 22.8782C19.7747 18.6388 21.2386 14.5283 23.9235 11.2474C26.6083 7.96659 30.3479 5.71847 34.5048 4.88623C38.6617 4.05399 42.9786 4.68918 46.7196 6.68353C50.4606 8.67789 53.3941 11.908 55.0202 15.8231C56.6462 19.7383 56.864 24.0962 55.6366 28.154C54.4091 32.2118 51.8124 35.7183 48.289 38.0758C44.7655 40.4333 40.5335 41.4959 36.3143 41.0824C32.0951 40.6689 28.1499 38.8049 25.1513 35.8082C21.7191 32.3797 19.7877 27.7294 19.7813 22.8782ZM5.72128 65.4182C8.64823 59.321 13.2384 54.175 18.9629 50.5731C24.6873 46.9713 31.3129 45.0602 38.0763 45.0602C44.8396 45.0602 51.4653 46.9713 57.1897 50.5731C62.9142 54.175 67.5043 59.321 70.4313 65.4182H5.72128Z" fill="#1D1E1B" stroke="#1D1D1B" stroke-width="3" stroke-miterlimit="10"/>
</svg>
