<svg width="76" height="51" viewBox="0 0 76 51" fill="none" xmlns="http://www.w3.org/2000/svg">
<path d="M73.99 44.7498C73.2661 41.5722 71.7018 38.6475 69.4606 36.2814C67.2194 33.9153 64.3837 32.1948 61.25 31.2998C63.2142 30.2011 64.7584 28.4818 65.6408 26.4114C66.5232 24.341 66.6939 22.0364 66.1261 19.8586C65.5584 17.6808 64.2843 15.7529 62.5035 14.3768C60.7226 13.0006 58.5356 12.2541 56.285 12.2541C54.0345 12.2541 51.8474 13.0006 50.0666 14.3768C48.2857 15.7529 47.0117 17.6808 46.4439 19.8586C45.8762 22.0364 46.0469 24.341 46.9293 26.4114C47.8117 28.4818 49.3559 30.2011 51.32 31.2998C48.6965 32.0501 46.2763 33.3833 44.24 35.1998C40.8365 32.0265 36.6384 29.8325 32.09 28.8498C35.1475 27.5688 37.6672 25.2688 39.221 22.3406C40.7748 19.4123 41.2669 16.0364 40.6136 12.7864C39.9603 9.53647 38.202 6.61292 35.6374 4.51251C33.0727 2.4121 29.86 1.2644 26.545 1.2644C23.2301 1.2644 20.0173 2.4121 17.4527 4.51251C14.8881 6.61292 13.1297 9.53647 12.4764 12.7864C11.8232 16.0364 12.3152 19.4123 13.869 22.3406C15.4228 25.2688 17.9425 27.5688 21 28.8498C16.1492 29.9095 11.7006 32.3288 8.17463 35.8247C4.64868 39.3205 2.19129 43.7482 1.09003 48.5898C1.05007 48.7777 1.05007 48.9719 1.09003 49.1598C1.13608 49.3487 1.22124 49.5258 1.34003 49.6798C1.46181 49.8288 1.61562 49.9484 1.79003 50.0298C1.96172 50.1126 2.14942 50.157 2.34003 50.1598H50.74C50.9319 50.1592 51.1213 50.1158 51.2943 50.0328C51.4672 49.9497 51.6195 49.8291 51.74 49.6798C51.8625 49.5281 51.948 49.3501 51.99 49.1598C52.0401 48.9731 52.0401 48.7765 51.99 48.5898C51.8199 47.816 51.6096 47.0517 51.36 46.2998H72.72C72.914 46.2981 73.1052 46.2537 73.28 46.1698C73.4499 46.0814 73.5997 45.9588 73.72 45.8098C73.8425 45.6581 73.928 45.4801 73.97 45.2898C74.01 45.1019 74.01 44.9077 73.97 44.7198L73.99 44.7498ZM48.7 22.4198C48.6997 20.9191 49.149 19.4527 49.99 18.2098C50.8202 16.9583 52.0051 15.9832 53.393 15.4095C54.7809 14.8359 56.3085 14.6897 57.78 14.9898C59.2628 15.2811 60.6253 16.0074 61.6939 17.0759C62.7624 18.1445 63.4887 19.507 63.78 20.9898C64.092 22.5895 63.88 24.2472 63.1756 25.7169C62.4711 27.1867 61.3117 28.3902 59.8692 29.149C58.4268 29.9079 56.7782 30.1815 55.168 29.9295C53.5577 29.6774 52.0716 28.9131 50.93 27.7498C49.5116 26.3212 48.7108 24.3929 48.7 22.3798V22.4198ZM14.78 15.6298C14.7799 13.2998 15.4707 11.0222 16.7651 9.08487C18.0595 7.14755 19.8994 5.6376 22.0519 4.74596C24.2045 3.85431 26.5732 3.62103 28.8584 4.07561C31.1435 4.53019 33.2426 5.65221 34.89 7.29979C36.2598 8.66964 37.2706 10.3561 37.8329 12.2099C38.3952 14.0637 38.4916 16.0276 38.1137 17.9275C37.7357 19.8275 36.895 21.6049 35.6661 23.1024C34.4371 24.5999 32.8578 25.7712 31.0681 26.5125C29.2784 27.2538 27.3335 27.5424 25.4056 27.3525C23.4777 27.1627 21.6264 26.5003 20.0157 25.4241C18.4049 24.3479 17.0845 22.8911 16.1712 21.1827C15.258 19.4742 14.7801 17.567 14.78 15.6298ZM4.03003 47.6298C5.51089 42.8017 8.49524 38.5729 12.548 35.5598C16.6008 32.5468 21.51 30.9071 26.56 30.8798C29.6791 30.8712 32.7684 31.486 35.6466 32.6881C38.5247 33.8902 41.1336 35.6553 43.32 37.8798C44.1187 38.6982 44.8604 39.5702 45.54 40.4898C45.82 40.8798 46.1 41.2698 46.35 41.6698C46.6 42.0698 46.86 42.4798 47.09 42.8998C47.18 43.0598 47.27 43.2198 47.35 43.3798C47.71 44.0598 48.04 44.7598 48.35 45.4698C48.6362 46.1508 48.88 46.8488 49.08 47.5598L4.03003 47.6298ZM50.39 43.7498C50.16 43.2298 49.92 42.7498 49.65 42.2298C49.56 42.0498 49.46 41.8698 49.36 41.6898C49.1 41.2398 48.83 40.7798 48.54 40.3398C48.25 39.8998 47.96 39.4598 47.64 39.0298C47.46 38.7831 47.27 38.5331 47.07 38.2798C46.79 37.9298 46.51 37.5898 46.22 37.2798L46.08 37.1198C48.9134 34.6381 52.5535 33.2731 56.32 33.2798C59.5724 33.2881 62.7415 34.3081 65.3881 36.1985C68.0346 38.0889 70.0274 40.7559 71.09 43.8298L50.39 43.7498Z" fill="#1D1E1B" stroke="#1D1D1B" stroke-miterlimit="10"/>
</svg>
