<svg width="75" height="53" viewBox="0 0 75 53" fill="none" xmlns="http://www.w3.org/2000/svg">
<path d="M69.771 1.64819H5.29105C4.43521 1.65083 3.61518 1.992 3.01001 2.59717C2.40484 3.20234 2.06367 4.0224 2.06104 4.87823V48.1082C2.06367 48.9641 2.40484 49.7841 3.01001 50.3893C3.61518 50.9945 4.43521 51.3356 5.29105 51.3382H69.771C70.1952 51.3382 70.6152 51.2547 71.0071 51.0923C71.399 50.93 71.7551 50.6921 72.055 50.3922C72.355 50.0922 72.5928 49.7362 72.7552 49.3443C72.9175 48.9524 73.0011 48.5324 73.0011 48.1082V4.87823C73.0011 4.02159 72.6608 3.19998 72.055 2.59424C71.4493 1.9885 70.6277 1.64819 69.771 1.64819ZM5.29105 4.22821H69.771C69.9434 4.22821 70.1088 4.29668 70.2307 4.41858C70.3526 4.54048 70.4211 4.70584 70.4211 4.87823V16.2382H4.64105V4.87823C4.64105 4.70584 4.70952 4.54048 4.83142 4.41858C4.95332 4.29668 5.11866 4.22821 5.29105 4.22821ZM69.771 48.7582H5.29105C5.11866 48.7582 4.95332 48.6897 4.83142 48.5678C4.70952 48.4459 4.64105 48.2806 4.64105 48.1082V18.8182H70.4211V48.1082C70.4211 48.2806 70.3526 48.4459 70.2307 48.5678C70.1088 48.6897 69.9434 48.7582 69.771 48.7582Z" fill="#1D1E1B" stroke="#1D1D1B" stroke-width="3" stroke-miterlimit="10"/>
<path d="M32.7611 38.958H14.9111C14.5689 38.958 14.2408 39.094 13.9989 39.3359C13.757 39.5778 13.6211 39.9059 13.6211 40.248C13.6211 40.5902 13.757 40.9183 13.9989 41.1602C14.2408 41.4021 14.5689 41.538 14.9111 41.538H32.7611C33.1025 41.5358 33.4294 41.3993 33.6711 41.158C33.7914 41.039 33.8869 40.8973 33.9521 40.7411C34.0173 40.5849 34.0509 40.4173 34.0509 40.248C34.0509 40.0788 34.0173 39.9112 33.9521 39.755C33.8869 39.5988 33.7914 39.457 33.6711 39.338C33.4294 39.0967 33.1025 38.9602 32.7611 38.958Z" fill="#1D1E1B" stroke="#1D1D1B" stroke-width="3" stroke-miterlimit="10"/>
<path d="M55.221 29.5181C54.214 29.5167 53.2193 29.7387 52.3084 30.168C51.3975 30.5974 50.5932 31.2234 49.9533 32.001C49.3135 32.7786 48.854 33.6883 48.6081 34.6648C48.3622 35.6413 48.3358 36.6602 48.531 37.6481C48.7227 38.6396 49.1325 39.576 49.7307 40.3896C50.3289 41.2032 51.1005 41.8736 51.9897 42.3522C52.879 42.8308 53.8635 43.1056 54.8721 43.1568C55.8806 43.208 56.8879 43.0342 57.821 42.6481C59.0491 42.1295 60.0939 41.2554 60.821 40.1381C61.6968 38.8303 62.0917 37.2592 61.9385 35.6928C61.7854 34.1263 61.0935 32.6615 59.981 31.5481C58.7024 30.2758 56.9747 29.5575 55.171 29.5481L55.221 29.5181ZM55.221 40.5181C54.3842 40.5186 53.5661 40.2709 52.8701 39.8063C52.1741 39.3417 51.6315 38.6811 51.311 37.9081C51.0726 37.3304 50.9651 36.707 50.9963 36.0828C51.0275 35.4586 51.1967 34.8491 51.4916 34.298C51.7866 33.747 52.1999 33.2682 52.702 32.896C53.2041 32.5238 53.7824 32.2675 54.3954 32.1455C55.0084 32.0235 55.6407 32.0389 56.2471 32.1905C56.8534 32.3421 57.4186 32.6262 57.902 33.0223C58.3854 33.4184 58.7751 33.9167 59.0429 34.4814C59.3108 35.0461 59.4501 35.6631 59.451 36.2881C59.4584 36.8468 59.353 37.4012 59.141 37.9181C58.9341 38.4373 58.6207 38.9074 58.221 39.2981C57.8322 39.6978 57.366 40.0142 56.851 40.2281C56.3354 40.4464 55.781 40.5587 55.221 40.5581V40.5181Z" fill="#1D1E1B" stroke="#1D1D1B" stroke-width="3" stroke-miterlimit="10"/>
</svg>
