<svg width="67" height="76" viewBox="0 0 67 76" fill="none" xmlns="http://www.w3.org/2000/svg">
<path d="M64.031 40.9381C63.6897 40.9407 63.3632 41.0774 63.1218 41.3188C62.8805 41.5601 62.7437 41.8868 62.7411 42.2281C62.7387 47.8936 61.0881 53.4362 57.9906 58.18C54.8931 62.9239 50.4824 66.6642 45.2962 68.945C40.11 71.2258 34.3723 71.9486 28.7825 71.0253C23.1926 70.102 17.9921 67.5725 13.8148 63.745C9.63752 59.9176 6.66393 54.9576 5.25645 49.4697C3.84897 43.9817 4.06844 38.2028 5.88807 32.8374C7.7077 27.472 11.0489 22.7518 15.5044 19.2522C19.9599 15.7526 25.3373 13.6248 30.9811 13.1281L24.7411 19.8781C24.6281 20.0038 24.5398 20.1496 24.4811 20.3081C24.4197 20.4673 24.3925 20.6377 24.4011 20.8081C24.4113 20.9773 24.4519 21.1433 24.5211 21.2981C24.5945 21.4494 24.6963 21.5853 24.8211 21.6981C25.0133 21.8637 25.2468 21.9743 25.4967 22.0183C25.7466 22.0623 26.0038 22.0381 26.2411 21.9481C26.4139 21.8779 26.568 21.7683 26.6911 21.6281L35.0511 12.6281C35.2808 12.374 35.4027 12.0405 35.3911 11.6981C35.3903 11.5287 35.3527 11.3615 35.281 11.2081C35.2112 11.0517 35.1089 10.912 34.9811 10.7981L25.9811 2.4381C25.7275 2.20745 25.3936 2.08536 25.0511 2.09807C24.8818 2.10304 24.7154 2.14292 24.5622 2.2152C24.4091 2.28747 24.2725 2.39055 24.1611 2.51805C23.9295 2.76894 23.8069 3.10141 23.82 3.44255C23.8331 3.7837 23.9809 4.1057 24.2311 4.33806L30.9911 10.5881C24.835 11.1009 18.9616 13.3956 14.0884 17.1919C9.21519 20.9882 5.5532 26.1218 3.54982 31.9653C1.54643 37.8087 1.2884 44.1092 2.80723 50.097C4.32606 56.0847 7.55599 61.5005 12.1024 65.6825C16.6489 69.8646 22.315 72.632 28.4085 73.6465C34.502 74.6611 40.759 73.8788 46.4152 71.3954C52.0714 68.912 56.8819 64.8349 60.2588 59.6623C63.6358 54.4897 65.4331 48.4454 65.4311 42.2681C65.4412 42.0869 65.4104 41.9058 65.341 41.7381C65.2722 41.5671 65.1663 41.4134 65.031 41.2881C64.9017 41.1651 64.7485 41.0698 64.581 41.0081C64.4073 40.9499 64.2239 40.9261 64.0411 40.9381H64.031Z" fill="#1D1E1B" stroke="#1D1D1B" stroke-width="3" stroke-miterlimit="10"/>
<path d="M14.031 41.6781C14.041 41.7107 14.041 41.7455 14.031 41.7781V42.1382V42.2081C14.0418 42.2351 14.059 42.2592 14.081 42.2781V42.3581H22.481C22.8225 42.3559 23.1494 42.2194 23.391 41.9781C23.5114 41.8591 23.6069 41.7174 23.6721 41.5612C23.7373 41.405 23.7709 41.2374 23.7709 41.0681C23.7709 40.8989 23.7373 40.7313 23.6721 40.5751C23.6069 40.4189 23.5114 40.2771 23.391 40.1581C23.1494 39.9168 22.8225 39.7803 22.481 39.7781H16.401C16.5974 39.4252 16.825 39.0905 17.081 38.7781C17.6916 38.0576 18.3605 37.3886 19.081 36.7781C20.2715 35.8095 21.3483 34.7092 22.291 33.4981C22.6202 33.045 22.8954 32.555 23.111 32.0381C23.3903 31.3453 23.5329 30.6051 23.531 29.8581C23.5339 28.6391 23.1172 27.4563 22.351 26.5082C21.8677 25.9859 21.273 25.5792 20.611 25.3181C19.9466 25.0592 19.2315 24.9565 18.521 25.0181C17.3081 24.9784 16.1288 25.4206 15.241 26.2481C14.3195 27.1514 13.7189 28.3315 13.531 29.6081C13.4895 29.9359 13.5715 30.2675 13.761 30.5381C13.9507 30.8081 14.2373 30.9944 14.561 31.0581C14.889 31.1205 15.2285 31.0561 15.511 30.8781C15.7845 30.6951 15.9805 30.4172 16.061 30.0981C16.1324 29.3445 16.4608 28.6384 16.991 28.0981C17.1942 27.9062 17.4353 27.759 17.6988 27.666C17.9623 27.573 18.2424 27.5363 18.521 27.5581C19.521 27.5581 20.041 27.7081 20.351 28.0981C20.7495 28.5817 20.9623 29.1916 20.951 29.8181C20.9516 30.2366 20.87 30.6511 20.711 31.0381C20.5767 31.3942 20.3951 31.7305 20.171 32.0381L19.791 32.5281C19.046 33.3564 18.2441 34.1316 17.391 34.8481C16.545 35.5592 15.7621 36.3421 15.051 37.1881C14.4946 37.8727 14.0522 38.6426 13.741 39.4681C13.5521 39.9973 13.4606 40.5563 13.471 41.1181L14.031 41.6781Z" fill="#1D1E1B" stroke="#1D1D1B" stroke-width="3" stroke-miterlimit="10"/>
<path d="M51.891 46.0781H42.791C42.4489 46.0781 42.1207 46.2141 41.8788 46.456C41.6369 46.6979 41.501 47.026 41.501 47.3682C41.501 47.7103 41.6369 48.0384 41.8788 48.2803C42.1207 48.5223 42.4489 48.6581 42.791 48.6581H49.981L44.631 61.7181C44.5616 61.8757 44.5257 62.046 44.5257 62.2181C44.5257 62.3903 44.5616 62.5606 44.631 62.7181C44.6942 62.8745 44.7877 63.0169 44.9061 63.137C45.0245 63.2572 45.1656 63.3527 45.321 63.4182C45.4777 63.477 45.6436 63.5075 45.811 63.5082C46.0666 63.5089 46.3165 63.433 46.5285 63.2904C46.7406 63.1478 46.9052 62.945 47.001 62.7081L53.081 47.8981V47.7281C53.1416 47.4589 53.1099 47.1772 52.991 46.9282C52.8786 46.6789 52.6894 46.4721 52.451 46.3381H51.981L51.891 46.0781Z" fill="#1D1E1B" stroke="#1D1D1B" stroke-width="3" stroke-miterlimit="10"/>
<path d="M27.3714 63.128C27.6775 63.2942 28.0365 63.3336 28.3714 63.238C28.5342 63.1903 28.686 63.111 28.8182 63.0046C28.9503 62.8982 29.0601 62.7669 29.1414 62.618L48.5314 27.438C48.6549 27.2159 48.7095 26.9621 48.6883 26.709C48.667 26.4558 48.571 26.2147 48.4123 26.0163C48.2535 25.8179 48.0394 25.6712 47.797 25.595C47.5547 25.5187 47.2951 25.5162 47.0514 25.5879C46.889 25.6334 46.7373 25.7107 46.6051 25.8155C46.4729 25.9202 46.3628 26.0503 46.2814 26.198L26.8614 61.358C26.7787 61.5095 26.7272 61.676 26.71 61.8478C26.6928 62.0196 26.7103 62.1931 26.7614 62.358C26.8069 62.5204 26.8842 62.6721 26.9889 62.8043C27.0937 62.9365 27.2237 63.0466 27.3714 63.128Z" fill="#1D1E1B" stroke="#1D1D1B" stroke-width="3" stroke-miterlimit="10"/>
</svg>
