<svg width="78" height="78" viewBox="0 0 78 78" fill="none" xmlns="http://www.w3.org/2000/svg">
<path d="M74.8414 64.9582L52.2414 42.3582C55.4215 36.7332 56.4554 30.1464 55.1518 23.8176C53.8483 17.4887 50.2954 11.8467 45.1513 7.93631C40.0072 4.02591 33.6203 2.11211 27.1734 2.5493C20.7265 2.9865 14.6565 5.74508 10.0874 10.3142C5.51829 14.8833 2.75969 20.9533 2.32249 27.4002C1.8853 33.8471 3.79912 40.234 7.70952 45.3781C11.6199 50.5223 17.2619 54.0751 23.5907 55.3787C29.9196 56.6823 36.5064 55.6483 42.1314 52.4682L64.7314 75.0682C65.0683 75.4073 65.4695 75.6758 65.9114 75.8582C66.3542 76.0456 66.8305 76.1409 67.3114 76.1382C68.2758 76.135 69.1997 75.7504 69.8814 75.0682L74.8814 70.0682C75.5605 69.3812 75.9413 68.4542 75.9413 67.4882C75.9413 66.5222 75.5605 65.5952 74.8814 64.9082L74.8414 64.9582ZM4.84135 29.2082C4.83148 25.4688 5.69011 21.7782 7.34959 18.4271C9.00908 15.0761 11.4241 12.1562 14.4043 9.89754C17.3846 7.63887 20.8485 6.10313 24.5234 5.41132C28.1983 4.71951 31.9836 4.89052 35.5812 5.9109C39.1787 6.93129 42.49 8.77315 45.2544 11.2914C48.0188 13.8096 50.1607 16.9354 51.5112 20.4224C52.8618 23.9094 53.3841 27.6624 53.037 31.3857C52.69 35.109 51.4831 38.7008 49.5114 41.8782L49.1413 42.4582C48.6309 43.2382 48.0732 43.9863 47.4714 44.6982L47.2414 44.9582C47.1701 45.0494 47.0933 45.1363 47.0114 45.2182C46.3853 45.9243 45.7175 46.5921 45.0114 47.2182L44.4814 47.6682L44.2214 47.8882C43.7714 48.2582 43.3014 48.6082 42.8214 48.9482L42.2514 49.3382L41.8014 49.6382L41.6714 49.7182C38.014 51.9795 33.8191 53.2232 29.5202 53.321C25.2213 53.4187 20.9742 52.3668 17.2178 50.274C13.4614 48.1813 10.3319 45.1235 8.15263 41.4166C5.97335 37.7097 4.82335 33.4882 4.8214 29.1882L4.84135 29.2082ZM72.9814 68.2882L67.9814 73.2882C67.8828 73.3866 67.7659 73.4646 67.6372 73.5178C67.5085 73.571 67.3706 73.5983 67.2314 73.5982C66.9471 73.5989 66.674 73.4875 66.4714 73.2882L44.2814 51.0982C44.8514 50.6882 45.4113 50.2582 45.9513 49.8182L46.0813 49.7082C46.2713 49.5482 46.4714 49.3782 46.6514 49.2082L46.9513 48.9382C47.4213 48.4982 47.8813 48.0482 48.3313 47.5682C48.5013 47.3982 48.6614 47.2182 48.8214 47.0282L49.1814 46.6182C49.1814 46.5582 49.2714 46.5082 49.3114 46.4582C49.8153 45.8871 50.2797 45.2824 50.7013 44.6482L72.9814 66.7782C73.0819 66.8773 73.1602 66.9966 73.2113 67.1282C73.3112 67.3924 73.3112 67.684 73.2113 67.9482C73.1525 68.0751 73.0712 68.1902 72.9714 68.2882H72.9814Z" fill="#1D1E1B" stroke="#1D1D1B" stroke-width="3" stroke-miterlimit="10"/>
<path d="M46.8613 31.0182C47.0307 31.0193 47.1986 30.9862 47.355 30.9209C47.5113 30.8556 47.6529 30.7594 47.7712 30.6382C47.8935 30.5198 47.989 30.3766 48.0513 30.2182C48.1198 30.0641 48.1539 29.8968 48.1512 29.7282C48.1526 27.1227 47.6407 24.5426 46.6448 22.135C45.649 19.7274 44.1887 17.5395 42.3474 15.6962C40.506 13.853 38.3196 12.3905 35.913 11.3922C33.5064 10.394 30.9267 9.87949 28.3213 9.87817C27.9792 9.87817 27.651 10.0141 27.4091 10.256C27.1672 10.4979 27.0313 10.826 27.0312 11.1682C27.0313 11.5103 27.1672 11.8384 27.4091 12.0803C27.651 12.3223 27.9792 12.4582 28.3213 12.4582C32.8938 12.4661 37.2768 14.286 40.5101 17.5193C43.7434 20.7526 45.5634 25.1356 45.5713 29.7082C45.5712 29.8789 45.6017 30.0482 45.6613 30.2082C45.7295 30.3663 45.8243 30.5117 45.9413 30.6382C46.0641 30.755 46.2062 30.8497 46.3613 30.9182C46.5192 30.9858 46.6895 31.0198 46.8613 31.0182Z" fill="#1D1E1B" stroke="#1D1D1B" stroke-width="3" stroke-miterlimit="10"/>
</svg>
