<svg width="76" height="76" viewBox="0 0 76 76" fill="none" xmlns="http://www.w3.org/2000/svg">
<path d="M73.95 63.3498L51.35 40.7498C54.5301 35.1248 55.5641 28.538 54.2605 22.2092C52.9569 15.8803 49.4041 10.2383 44.2599 6.32791C39.1158 2.41752 32.7289 0.503707 26.282 0.940903C19.8352 1.3781 13.7651 4.13668 9.19603 8.70578C4.62693 13.2749 1.86833 19.3449 1.43114 25.7918C0.993941 32.2387 2.90777 38.6256 6.81816 43.7697C10.7286 48.9139 16.3706 52.4667 22.6994 53.7703C29.0282 55.0739 35.6151 54.0399 41.24 50.8598L63.84 73.4598C64.177 73.7989 64.5781 74.0674 65.02 74.2498C65.4628 74.4372 65.9392 74.5325 66.42 74.5298C67.3844 74.5266 68.3084 74.142 68.99 73.4598L73.99 68.4598C74.6691 67.7728 75.0499 66.8458 75.0499 65.8798C75.0499 64.9138 74.6691 63.9868 73.99 63.2998L73.95 63.3498ZM3.95 27.5998C3.94012 23.8604 4.79875 20.1698 6.45824 16.8187C8.11772 13.4677 10.5328 10.5478 13.513 8.28914C16.4932 6.03047 19.9572 4.49473 23.6321 3.80292C27.3069 3.11111 31.0923 3.28212 34.6898 4.30251C38.2873 5.32289 41.5987 7.16475 44.3631 9.68297C47.1275 12.2012 49.2693 15.327 50.6199 18.814C51.9704 22.301 52.4927 26.054 52.1457 29.7773C51.7986 33.5006 50.5918 37.0924 48.62 40.2698L48.25 40.8498C47.7395 41.6298 47.1818 42.3779 46.58 43.0898L46.35 43.3498C46.2787 43.4411 46.2019 43.5279 46.12 43.6098C45.494 44.3159 44.8261 44.9837 44.12 45.6098L43.59 46.0598L43.33 46.2798C42.88 46.6498 42.41 46.9998 41.93 47.3398L41.36 47.7298L40.91 48.0298L40.78 48.1098C37.1226 50.3711 32.9277 51.6148 28.6288 51.7126C24.3299 51.8103 20.0829 50.7584 16.3265 48.6656C12.5701 46.5729 9.44056 43.5151 7.26128 39.8082C5.08199 36.1013 3.932 31.8798 3.93004 27.5798L3.95 27.5998ZM72.09 66.6798L67.09 71.6798C66.9915 71.7782 66.8745 71.8562 66.7458 71.9094C66.6171 71.9626 66.4793 71.9899 66.34 71.9898C66.0558 71.9905 65.7827 71.8791 65.58 71.6798L43.39 49.4898C43.96 49.0798 44.52 48.6498 45.06 48.2098L45.19 48.0998C45.38 47.9398 45.58 47.7698 45.76 47.5998L46.06 47.3298C46.53 46.8898 46.99 46.4398 47.44 45.9598C47.61 45.7898 47.77 45.6098 47.93 45.4198L48.29 45.0098C48.29 44.9498 48.38 44.8998 48.42 44.8498C48.924 44.2787 49.3883 43.674 49.81 43.0398L72.09 65.1698C72.1905 65.2689 72.2689 65.3882 72.32 65.5198C72.4198 65.784 72.4198 66.0756 72.32 66.3398C72.2611 66.4667 72.1798 66.5818 72.08 66.6798H72.09Z" fill="#1D1E1B" stroke="#1D1D1B" stroke-miterlimit="10"/>
<path d="M45.97 29.4098C46.1395 29.4109 46.3074 29.3778 46.4637 29.3125C46.6201 29.2472 46.7617 29.151 46.88 29.0298C47.0023 28.9114 47.0978 28.7682 47.16 28.6098C47.2286 28.4557 47.2627 28.2884 47.26 28.1198C47.2613 25.5143 46.7494 22.9342 45.7536 20.5266C44.7578 18.119 43.2975 15.9311 41.4561 14.0878C39.6147 12.2446 37.4283 10.7821 35.0217 9.78383C32.6151 8.78556 30.0355 8.27109 27.4301 8.26978C27.0879 8.26978 26.7598 8.40568 26.5179 8.6476C26.276 8.88952 26.14 9.21764 26.14 9.55977C26.14 9.9019 26.276 10.23 26.5179 10.4719C26.7598 10.7139 27.0879 10.8498 27.4301 10.8498C32.0026 10.8577 36.3856 12.6776 39.6188 15.9109C42.8521 19.1442 44.6721 23.5272 44.6801 28.0998C44.68 28.2705 44.7104 28.4398 44.77 28.5998C44.8383 28.7579 44.933 28.9033 45.05 29.0298C45.1729 29.1466 45.3149 29.2414 45.47 29.3098C45.628 29.3774 45.7982 29.4114 45.97 29.4098Z" fill="#1D1E1B" stroke="#1D1D1B" stroke-miterlimit="10"/>
</svg>
