<svg width="117" height="57" viewBox="0 0 117 57" fill="none" xmlns="http://www.w3.org/2000/svg">
<path d="M96.7411 10.608H84.1711V5.29805C84.1713 4.82814 84.0796 4.36272 83.9011 3.92805C83.7219 3.49521 83.4604 3.10125 83.1311 2.76805C82.8012 2.43681 82.4108 2.17201 81.9811 1.98805C81.5467 1.8085 81.0811 1.71671 80.6111 1.71803H39.2711C38.8011 1.71776 38.3357 1.8095 37.9011 1.98805C37.4678 2.17089 37.0739 2.43574 36.7411 2.76805C36.4088 3.10085 36.1439 3.49475 35.9611 3.92805C35.7863 4.36386 35.6947 4.82853 35.6911 5.29805V42.298C35.6828 43.2393 36.0415 44.1468 36.6911 44.828C37.37 45.4813 38.279 45.8406 39.2211 45.828H44.0711C44.1722 48.3107 45.242 50.6548 47.0511 52.358C48.8218 54.0464 51.1745 54.9882 53.6211 54.9881C56.0678 54.9892 58.4209 54.0473 60.1911 52.358C61.9605 50.6687 63.01 48.3619 63.1211 45.918H89.0411C89.1532 48.3622 90.2031 50.6691 91.9724 52.3591C93.7417 54.049 96.0943 54.9921 98.5411 54.9921C100.988 54.9921 103.34 54.049 105.11 52.3591C106.879 50.6691 107.929 48.3622 108.041 45.918H111.341C112.283 45.9306 113.192 45.5713 113.871 44.918C114.205 44.5872 114.47 44.1931 114.651 43.7587C114.831 43.3243 114.923 42.8584 114.921 42.388V28.818C114.916 23.9953 113 19.3711 109.592 15.9581C106.185 12.545 101.564 10.6213 96.7411 10.608ZM53.6311 52.508C51.8024 52.5057 50.0472 51.7878 48.7411 50.508C47.4613 49.2019 46.7434 47.4467 46.7411 45.6181C46.7411 45.3303 46.7612 45.043 46.8011 44.758C46.92 43.7584 47.2618 42.7981 47.8011 41.948L47.8611 41.848L48.0211 41.6181L48.1811 41.408C48.2411 41.348 48.2911 41.278 48.3411 41.218V41.168L48.5011 40.9881L48.6711 40.8081L48.8511 40.6481L49.0411 40.4881C49.2546 40.3102 49.482 40.1497 49.7211 40.008L49.8511 39.938H49.9811L50.1011 39.878L50.1911 39.828L50.3211 39.7681L50.4711 39.698L50.6211 39.638L50.7711 39.578L50.9211 39.5281L51.0811 39.468H55.3211L55.4811 39.5281L55.6311 39.578L55.7911 39.638L55.9311 39.698L56.0811 39.7681L56.2011 39.828L56.3011 39.878L56.4111 39.938H56.5211L56.6411 40.008C56.874 40.1542 57.0978 40.3145 57.3111 40.4881L57.5011 40.6481L57.6811 40.8081H57.7311L57.9011 40.9881H57.9511L58.1211 41.168V41.218L58.2811 41.408V41.4581L58.4411 41.668L58.5911 41.8981L58.6511 41.9881C59.189 42.8424 59.5306 43.8056 59.6511 44.8081C59.6511 45.1081 59.7011 45.398 59.7011 45.668C59.7031 47.3788 59.0686 49.0292 57.9211 50.298C56.7774 51.5714 55.2029 52.3764 53.5011 52.5581L53.6311 52.508ZM81.6311 11.8981V43.2681H62.8711C62.6216 42.2345 62.199 41.2505 61.6211 40.358L61.4111 40.0581L61.2011 39.7681V39.7081L60.9811 39.438L60.9211 39.378C60.8511 39.288 60.7711 39.208 60.7011 39.128L60.6411 39.0581L60.4111 38.828L60.3411 38.758L60.1011 38.5281H60.0511L59.7911 38.3081C59.4968 38.0712 59.1897 37.8509 58.8711 37.6481H58.8011L58.6111 37.538L58.4911 37.468L58.3211 37.378L58.1711 37.298L57.9911 37.218L57.7911 37.1181L57.5911 37.038L57.3711 36.9581L57.1711 36.878L56.9411 36.8081L56.7411 36.7381L56.5011 36.6781L56.3111 36.6181L56.0611 36.568H55.8911L55.6311 36.5181H54.6311C54.3147 36.4981 53.9974 36.4981 53.6811 36.5181H52.2011L51.9511 36.568L51.7511 36.628L51.5111 36.688L51.3111 36.758L51.0811 36.828L50.8811 36.908L50.6711 36.9881L50.4711 37.068L50.2711 37.168L50.0911 37.2481L49.9411 37.328L49.7611 37.418L49.6411 37.4881L49.4411 37.598L49.3711 37.6481L48.9011 37.968L48.4811 38.2781L48.2211 38.4981H48.1611L47.9211 38.728L47.8511 38.798L47.6111 39.038L47.5511 39.098L47.3311 39.3381L47.2711 39.408L47.0511 39.6781V39.7381L46.8311 40.0281L46.6211 40.3381C46.0511 41.224 45.6289 42.1966 45.3711 43.218H40.2411C39.9787 43.2169 39.7273 43.1128 39.5411 42.9281C39.4466 42.8354 39.3714 42.725 39.3199 42.6031C39.2684 42.4812 39.2416 42.3503 39.2411 42.218V5.21803C39.2416 5.08572 39.2684 4.95487 39.3199 4.83299C39.3714 4.71112 39.4466 4.60065 39.5411 4.50804C39.7273 4.3233 39.9787 4.21914 40.2411 4.21803H81.5411C81.6727 4.21727 81.8031 4.24252 81.925 4.29228C82.0468 4.34205 82.1576 4.41536 82.2511 4.50804C82.3437 4.60148 82.4171 4.71231 82.4668 4.83415C82.5166 4.95599 82.5418 5.08643 82.5411 5.21803L81.6311 11.8981ZM98.6311 52.508C96.7953 52.4924 95.0392 51.7562 93.7411 50.4581C92.4429 49.1599 91.7067 47.4038 91.6911 45.568C91.6911 45.2803 91.7112 44.993 91.7511 44.7081C91.88 43.6704 92.2424 42.6755 92.8111 41.798L92.9711 41.568L93.1311 41.358L93.2811 41.168L93.5111 40.878H93.5611L93.7311 40.698H93.7811L93.9611 40.538L94.1511 40.378L94.3411 40.2381L94.4611 39.9281L94.8111 39.698H94.8711L94.9911 39.628H95.1011L95.2211 39.568L95.3211 39.5181L95.4511 39.4581L95.5911 39.3981L95.7311 39.3381L95.8911 39.2781L96.0411 39.228L96.2011 39.168H100.591L100.751 39.228L100.891 39.2781L101.051 39.3381L101.191 39.3981L101.341 39.468L101.461 39.5281L101.561 39.578L101.671 39.638H101.791L101.911 39.7081H101.981C102.214 39.8542 102.438 40.0145 102.651 40.188L102.841 40.348H102.981L103.161 40.508H103.211L103.381 40.688L103.551 40.8681V40.918L103.711 41.108V41.158L103.871 41.3681L104.021 41.598C104.52 42.3624 104.86 43.2194 105.021 44.1181L105.081 44.508C105.096 44.7945 105.096 45.0816 105.081 45.3681C105.141 47.1803 104.487 48.9438 103.261 50.279C102.034 51.6143 100.332 52.4147 98.5211 52.508H98.6311ZM112.441 42.2681C112.441 42.5333 112.336 42.7876 112.148 42.9751C111.961 43.1627 111.706 43.2681 111.441 43.2681H107.811C107.566 42.233 107.143 41.2483 106.561 40.358L106.351 40.048L106.141 39.758L106.091 39.698L105.871 39.4281L105.811 39.358L105.591 39.1181L105.531 39.0581L105.301 38.818L105.231 38.7481L104.981 38.5581L104.721 38.3381C104.431 38.1081 104.121 37.888 103.811 37.688H103.741L103.551 37.578L103.431 37.508L103.261 37.418L103.111 37.3381L102.931 37.258L102.731 37.168L102.531 37.0881L102.311 37.008L102.111 36.9281L101.881 36.858L101.691 36.788L101.461 36.728L101.261 36.668L101.011 36.6181H100.841L100.581 36.568H99.4611C99.128 36.548 98.7941 36.548 98.4611 36.568H96.9811L96.7311 36.6181L96.5311 36.6781L96.2911 36.7381L96.0911 36.8081L95.8611 36.878L95.6611 36.9581L95.4511 37.038L95.2511 37.1181L95.0511 37.218L94.8711 37.298L94.7111 37.378L94.5411 37.468L94.4211 37.538L94.2311 37.6481H94.1711C94.0211 37.7481 93.8711 37.838 93.7311 37.948L93.2811 38.2781L93.0211 38.4981H92.8811L92.6411 38.728V38.7781L92.4111 39.008L92.3411 39.078L92.1111 39.328L92.0511 39.388L91.8411 39.6481V39.7081L91.6211 39.9981V40.048L91.4111 40.348C90.8403 41.2287 90.4211 42.1988 90.1711 43.218H84.9811V13.218H97.5211C101.667 13.218 105.644 14.8645 108.577 17.7954C111.509 20.7263 113.158 24.7018 113.161 28.848L112.441 42.2681Z" fill="#1D1E1B" stroke="#1D1D1B" stroke-width="3" stroke-miterlimit="10"/>
<path d="M30.5111 42.498H2.98106C2.80544 42.4819 2.62841 42.5024 2.46106 42.558C2.29107 42.616 2.13458 42.7078 2.00105 42.828C1.86699 42.9504 1.76121 43.1005 1.69106 43.268C1.61924 43.432 1.5818 43.6089 1.58105 43.788C1.58393 43.9668 1.62128 44.1433 1.69106 44.308C1.76401 44.4709 1.8695 44.6173 2.00105 44.738C2.13458 44.8581 2.29107 44.9499 2.46106 45.008C2.62841 45.0636 2.80544 45.084 2.98106 45.068H30.4711C30.65 45.0834 30.8301 45.063 31.0011 45.008C31.171 44.9499 31.3275 44.8581 31.4611 44.738C31.5894 44.6145 31.6944 44.4688 31.7711 44.308C31.8408 44.1433 31.8782 43.9668 31.8811 43.788C31.8803 43.6089 31.8429 43.432 31.7711 43.268C31.6972 43.1026 31.5919 42.9532 31.4611 42.828C31.3275 42.7078 31.171 42.616 31.0011 42.558C30.8301 42.5029 30.65 42.4825 30.4711 42.498H30.5111Z" fill="#1D1E1B" stroke="#1D1D1B" stroke-width="3" stroke-miterlimit="10"/>
<path d="M30.511 32.1082H9.91104C9.56957 32.1104 9.24269 32.2469 9.00104 32.4882C8.75977 32.7298 8.62327 33.0567 8.62104 33.3982C8.61283 33.5742 8.64051 33.7501 8.7024 33.9151C8.76429 34.0802 8.85909 34.2309 8.98104 34.3582C9.22269 34.5994 9.54957 34.7359 9.89104 34.7382H30.491C30.8325 34.7359 31.1594 34.5994 31.401 34.3582C31.5228 34.2402 31.6192 34.0986 31.6846 33.9422C31.7499 33.7858 31.7827 33.6177 31.781 33.4482C31.7827 33.2786 31.7499 33.1105 31.6846 32.9541C31.6192 32.7977 31.5228 32.6561 31.401 32.5381C31.1594 32.2969 30.8325 32.1604 30.491 32.1581L30.511 32.1082Z" fill="#1D1E1B" stroke="#1D1D1B" stroke-width="3" stroke-miterlimit="10"/>
<path d="M30.5114 21.718H16.7514C16.41 21.7203 16.0831 21.8568 15.8414 22.098C15.6002 22.3397 15.4637 22.6666 15.4614 23.008C15.4637 23.3495 15.6002 23.6764 15.8414 23.918C16.0831 24.1593 16.41 24.2958 16.7514 24.298H30.5114C30.8529 24.2958 31.1798 24.1593 31.4214 23.918C31.5432 23.8 31.6396 23.6585 31.705 23.5021C31.7703 23.3456 31.8031 23.1775 31.8014 23.008C31.8031 22.8385 31.7703 22.6704 31.705 22.514C31.6396 22.3575 31.5432 22.216 31.4214 22.098C31.1798 21.8568 30.8529 21.7203 30.5114 21.718Z" fill="#1D1E1B" stroke="#1D1D1B" stroke-width="3" stroke-miterlimit="10"/>
</svg>
