<svg width="76" height="66" viewBox="0 0 76 66" fill="none" xmlns="http://www.w3.org/2000/svg">
<path d="M70.8312 24.2081H62.8312C62.261 18.0129 59.3969 12.2543 54.8006 8.06165C50.2043 3.86895 44.2075 1.54468 37.9862 1.54468C31.7649 1.54468 25.768 3.86895 21.1717 8.06165C16.5754 12.2543 13.7113 18.0129 13.1412 24.2081H5.14116C4.27471 24.2107 3.44451 24.5561 2.83183 25.1688C2.21916 25.7814 1.87381 26.6116 1.87117 27.4781V43.2281C1.86816 43.6575 1.95325 44.0829 2.12117 44.4781C2.37121 45.068 2.78856 45.5719 3.3217 45.9273C3.85484 46.2827 4.48043 46.4742 5.12117 46.4781H13.1911C13.561 49.1654 14.4618 51.7523 15.8411 54.0881C17.1505 56.2088 18.9822 57.958 21.1611 59.1681C24.9711 61.2881 29.6211 61.7381 33.5011 61.8081C33.6569 62.5358 34.0576 63.1881 34.6364 63.6558C35.2152 64.1236 35.937 64.3786 36.6812 64.3781H42.2811C43.1441 64.3729 43.9703 64.0277 44.5805 63.4175C45.1908 62.8072 45.5359 61.9811 45.5412 61.1181V59.9481C45.5359 59.0851 45.1908 58.259 44.5805 57.6487C43.9703 57.0385 43.1441 56.6934 42.2811 56.6881H36.6812C35.9521 56.694 35.2467 56.9479 34.6812 57.4081C34.1034 57.8675 33.6981 58.509 33.5311 59.2281C29.9711 59.1681 25.7611 58.7581 22.4411 56.9081C18.5611 54.7481 16.3312 50.9081 15.6312 45.1081V26.4481C15.543 21.967 16.8029 17.5626 19.2477 13.8061C21.6924 10.0495 25.2092 7.11397 29.3422 5.37994C33.4752 3.64592 38.0338 3.19337 42.427 4.08099C46.8203 4.96862 50.8456 7.1555 53.9812 10.3581C56.0627 12.4884 57.701 15.0103 58.8012 17.7781C59.8969 20.5448 60.4274 23.503 60.3612 26.4781V45.2481C60.3618 45.5034 60.4382 45.7526 60.5806 45.9645C60.723 46.1763 60.925 46.3412 61.1611 46.4381C61.3176 46.4978 61.4837 46.5283 61.6512 46.5281H70.8411C71.7076 46.5254 72.5378 46.1801 73.1505 45.5674C73.7631 44.9548 74.1085 44.1246 74.1112 43.2581V27.4781C74.1085 26.6116 73.7631 25.7814 73.1505 25.1688C72.5378 24.5561 71.7076 24.2107 70.8411 24.2081H70.8312ZM35.9812 59.9681C35.9901 59.7897 36.0609 59.6201 36.1812 59.4881C36.3107 59.364 36.4818 59.2926 36.6611 59.2881H42.2612C42.4405 59.2926 42.6117 59.364 42.7412 59.4881C42.8048 59.5507 42.8553 59.6255 42.8896 59.7079C42.924 59.7903 42.9415 59.8788 42.9411 59.9681V61.1381C42.9411 61.3185 42.8695 61.4914 42.742 61.6189C42.6145 61.7464 42.4415 61.8181 42.2612 61.8181H36.6611C36.5718 61.8184 36.4834 61.8009 36.401 61.7665C36.3185 61.7322 36.2438 61.6817 36.1812 61.6181C36.0609 61.4861 35.9901 61.3165 35.9812 61.1381V59.9681ZM4.41115 43.2281V27.4781C4.4174 27.2972 4.49254 27.1255 4.62117 26.9981C4.68332 26.9331 4.75771 26.8811 4.8401 26.845C4.9225 26.809 5.01123 26.7896 5.10115 26.7881H13.0011V43.9281H5.10115C4.91674 43.9244 4.74102 43.8491 4.61116 43.7181C4.48294 43.5872 4.41112 43.4113 4.41115 43.2281ZM71.4812 43.2281C71.4812 43.4113 71.4094 43.5872 71.2811 43.7181C71.2175 43.7838 71.1414 43.8363 71.0573 43.8723C70.9731 43.9084 70.8827 43.9273 70.7912 43.9281H62.9812V26.7881H70.8811C71.0656 26.7918 71.2413 26.8671 71.3712 26.9981C71.4353 27.0604 71.4861 27.1351 71.5204 27.2176C71.5548 27.3001 71.5721 27.3887 71.5712 27.4781L71.4812 43.2281Z" fill="#1D1E1B" stroke="#1D1D1B" stroke-width="3" stroke-miterlimit="10"/>
</svg>
